PathFileType   4   (X/Y/Z)
DataRate	CameraRate	NumFrames	NumMarkers	Units	OrigDataRate	OrigDataStartFrame	OrigNumFrames
120.0	120.0	10	37	mm	120.0	83	164
Frame#	Time	midhip	hip_r	hip_l	knee_r	knee_l	ankle_r	ankle_l	midasis	asis_r	asis_l	psis_r	psis_l	epicondLat_r	epicondLat_l	epicondMed_r	epicondMed_l	malleolusLat_r	malleolusLat_l	malleolusMedv_r	malleolusMedv_l	neck	subclavicle_r	subclavicle_l	sternalnotch	xyphoidprocess	thighwand_r	thighwand_l	upperleg1_r	upperleg1_l	upperleg2_r	upperleg2_l	shankwand_r	shankwand_l	lowerleg1_r	lowerleg1_l	toe_r	toe_l
 	 	X1	Y1	Z1	X2	Y2	Z2	X3	Y3	Z3	X4	Y4	Z4	X5	Y5	Z5	X6	Y6	Z6	X7	Y7	Z7	X8	Y8	Z8	X9	Y9	Z9	X10	Y10	Z10	X11	Y11	Z11	X12	Y12	Z12	X13	Y13	Z13	X14	Y14	Z14	X15	Y15	Z15	X16	Y16	Z16	X17	Y17	Z17	X18	Y18	Z18	X19	Y19	Z19	X20	Y20	Z20	X21	Y21	Z21	X22	Y22	Z22	X23	Y23	Z23	X24	Y24	Z24	X25	Y25	Z25	X26	Y26	Z26	X27	Y27	Z27	X28	Y28	Z28	X29	Y29	Z29	X30	Y30	Z30	X31	Y31	Z31	X32	Y32	Z32	X33	Y33	Z33	X34	Y34	Z34	X35	Y35	Z35	X36	Y36	Z36	X37	Y37	Z37

	83	0.99167	1113.882	739.615	-233.923	1105.313	733.579	-165.614	1086.350	731.813	-294.530	1209.324	404.029	-180.722	1000.473	422.526	-302.246	1270.323	67.149	-175.330	819.229	109.228	-309.513	1166.087	800.740	-241.339	1180.842	802.114	-141.037	1151.333	799.366	-341.641	1016.095	842.492	-185.420	1005.885	841.555	-239.155	1217.360	404.071	-126.312	986.657	427.671	-354.714	1195.141	403.061	-222.996	1005.146	398.585	-253.946	1269.826	67.659	-137.837	810.494	115.104	-344.983	1272.730	67.031	-200.234	820.372	109.800	-279.162	1032.861	1207.769	-223.599	1142.341	1148.710	-190.538	1138.015	1152.315	-266.504	1125.405	1149.360	-229.133	1153.360	1067.092	-232.217	1285.461	549.376	-84.262	1170.485	509.465	-345.547	1192.985	579.592	-100.615	1111.014	584.850	-358.494	1213.209	498.102	-118.318	1079.004	503.923	-353.516	1252.125	175.667	-61.994	881.973	220.703	-418.946	1248.134	139.845	-136.716	851.796	189.956	-346.739	1370.819	40.998	-159.520	892.895	40.042	-323.897
	84	1.00000	1119.300	740.456	-231.642	1111.396	735.083	-163.683	1092.364	733.269	-292.588	1211.525	404.613	-179.788	1009.754	422.807	-302.280	1270.431	67.146	-175.203	823.143	112.897	-309.594	1172.168	802.175	-239.470	1186.975	803.586	-139.177	1157.361	800.763	-339.762	1022.155	844.122	-183.529	1011.924	843.031	-237.263	1219.426	404.354	-125.359	995.982	428.109	-354.743	1196.199	404.262	-222.278	1014.048	398.528	-254.036	1269.928	67.568	-137.709	814.501	118.937	-345.060	1272.740	67.112	-200.178	824.691	113.366	-279.356	1038.627	1209.226	-221.762	1148.368	1150.406	-189.241	1143.114	1153.861	-265.041	1130.963	1150.969	-227.570	1158.944	1068.716	-230.845	1288.999	548.595	-82.700	1178.671	511.135	-344.754	1197.319	580.186	-98.990	1118.569	586.200	-357.484	1216.019	498.394	-117.113	1087.209	504.923	-352.952	1252.894	175.479	-61.661	887.714	223.162	-419.204	1248.607	139.882	-136.512	857.366	192.830	-346.740	1370.845	40.884	-159.832	894.122	40.446	-323.671
	85	1.00833	1123.938	740.578	-229.217	1117.351	736.536	-161.811	1098.299	734.736	-290.714	1213.702	405.199	-178.927	1019.535	422.990	-302.425	1270.507	67.128	-175.108	827.569	116.668	-309.521	1178.145	803.600	-237.605	1192.967	805.000	-137.327	1163.324	802.199	-337.884	1028.112	845.709	-181.638	1017.868	844.473	-235.371	1221.466	404.644	-124.480	1005.808	428.429	-354.886	1197.505	405.546	-221.870	1023.661	398.363	-253.670	1270.074	67.478	-137.613	818.981	122.872	-344.972	1272.726	67.194	-200.155	829.574	116.991	-279.436	1044.374	1210.928	-219.950	1154.118	1152.011	-187.770	1147.958	1155.345	-263.517	1136.253	1152.550	-225.892	1163.984	1070.221	-229.355	1292.424	547.827	-81.235	1187.221	512.930	-344.036	1201.415	580.738	-97.523	1126.332	587.562	-356.515	1218.774	498.656	-116.129	1095.677	505.672	-352.235	1253.859	175.357	-61.378	893.816	225.642	-419.420	1249.198	139.927	-136.324	863.466	195.800	-346.684	1370.871	40.797	-160.281	895.497	40.827	-323.405
	86	1.01667	1128.924	741.119	-226.907	1123.147	737.910	-160.031	1104.159	736.172	-288.944	1215.863	405.754	-178.091	1029.783	423.060	-302.685	1270.566	67.094	-175.034	832.560	120.494	-309.282	1184.009	804.978	-235.766	1198.778	806.329	-135.501	1169.241	803.627	-336.030	1033.950	847.222	-179.776	1023.709	845.853	-233.515	1223.509	404.927	-123.632	1016.122	428.608	-355.153	1199.204	406.798	-221.460	1034.391	397.595	-253.262	1270.263	67.383	-137.537	823.973	126.864	-344.703	1272.687	67.238	-200.130	835.001	120.658	-279.326	1050.055	1212.708	-218.113	1159.796	1153.409	-186.008	1154.701	1156.986	-261.690	1142.468	1154.076	-224.307	1170.219	1071.749	-227.653	1295.792	547.080	-79.889	1196.092	514.837	-343.338	1205.317	581.254	-96.042	1134.022	588.743	-355.554	1221.632	498.902	-115.164	1104.639	506.311	-351.519	1254.989	175.266	-61.120	900.272	228.136	-419.568	1249.844	139.952	-136.129	870.038	198.810	-346.593	1370.904	40.723	-160.805	897.043	41.174	-323.069
	87	1.02500	1134.367	742.135	-224.756	1128.659	739.178	-158.371	1109.892	737.542	-287.318	1218.040	406.257	-177.241	1040.429	423.012	-303.037	1270.632	67.046	-174.965	838.139	124.313	-308.867	1189.690	806.265	-233.955	1204.282	807.536	-133.703	1175.098	804.993	-334.207	1039.663	848.631	-177.969	1029.445	847.141	-231.718	1225.609	405.202	-122.774	1026.878	428.627	-355.526	1201.344	407.795	-221.055	1045.712	396.370	-253.516	1270.487	67.276	-137.466	829.495	130.858	-344.243	1272.638	67.253	-200.097	840.941	124.304	-278.994	1055.697	1213.916	-216.216	1165.631	1154.757	-184.313	1159.302	1158.120	-259.977	1147.680	1155.329	-222.359	1175.304	1072.968	-225.914	1299.155	546.377	-78.655	1205.257	516.831	-342.605	1209.069	581.584	-94.763	1141.917	589.724	-354.610	1224.569	499.112	-114.280	1114.180	507.023	-351.067	1256.210	175.166	-60.854	907.061	230.635	-419.623	1250.499	139.929	-135.928	877.080	201.817	-346.313	1370.948	40.649	-161.334	898.762	41.498	-322.642
	88	1.03333	1139.801	743.124	-222.686	1134.238	740.340	-156.698	1115.594	738.783	-285.663	1220.252	406.728	-176.340	1051.399	422.818	-303.482	1270.728	66.991	-174.886	844.316	128.075	-308.286	1195.352	807.461	-232.183	1209.842	808.671	-131.953	1180.863	806.251	-332.412	1045.251	849.907	-176.236	1035.073	848.301	-230.004	1227.793	405.465	-121.874	1037.990	428.504	-355.999	1203.672	408.411	-220.401	1056.813	395.286	-254.227	1270.734	67.152	-137.386	835.550	134.810	-343.596	1272.578	67.275	-200.056	847.569	127.834	-278.528	1061.356	1214.977	-214.403	1171.286	1156.076	-182.926	1163.471	1159.219	-258.479	1152.589	1156.557	-220.622	1180.031	1074.148	-224.468	1302.566	545.756	-77.526	1214.592	518.849	-341.802	1212.724	581.829	-93.719	1150.202	590.732	-353.757	1227.522	499.307	-113.383	1123.920	507.699	-350.812	1257.443	175.032	-60.552	914.154	233.131	-419.563	1251.165	139.907	-135.686	884.593	204.794	-345.864	1371.014	40.567	-161.797	900.681	41.835	-322.111
	89	1.04167	1145.335	744.171	-220.773	1139.717	741.370	-155.061	1121.194	739.881	-284.045	1222.456	407.129	-175.371	1062.567	422.517	-304.010	1270.863	66.929	-174.787	851.064	131.753	-307.549	1200.900	808.533	-230.453	1215.290	809.689	-130.248	1186.510	807.376	-330.658	1050.722	851.021	-174.602	1040.584	849.306	-228.387	1230.032	405.696	-120.914	1049.323	428.269	-356.563	1205.596	408.969	-219.394	1068.128	393.769	-256.102	1270.998	67.013	-137.287	842.122	138.686	-342.777	1272.552	67.309	-199.990	854.905	131.217	-277.940	1066.925	1216.093	-212.654	1176.873	1157.234	-181.564	1169.574	1160.536	-256.959	1158.435	1157.768	-219.282	1186.048	1075.417	-223.143	1306.058	545.240	-76.474	1224.133	520.895	-341.002	1216.716	582.208	-92.712	1158.670	591.882	-353.021	1230.510	499.616	-112.355	1133.985	508.269	-351.041	1258.626	174.854	-60.204	921.535	235.609	-419.372	1251.803	139.914	-135.343	892.303	207.827	-345.376	1371.109	40.468	-162.141	902.850	42.240	-321.477
	90	1.05000	1151.442	745.732	-219.132	1144.981	742.253	-153.503	1126.655	740.821	-282.516	1224.606	407.437	-174.330	1073.813	422.143	-304.578	1271.034	66.866	-174.661	858.335	135.335	-306.660	1206.270	809.459	-228.771	1220.502	810.571	-128.583	1192.037	808.347	-328.960	1056.071	851.958	-173.080	1045.968	850.133	-226.867	1232.288	405.878	-119.891	1060.757	427.948	-357.171	1207.009	409.456	-218.128	1079.890	391.875	-258.829	1271.270	66.861	-137.162	849.187	142.462	-341.796	1272.593	67.353	-199.871	862.640	134.389	-277.157	1072.338	1216.698	-210.863	1182.513	1158.233	-180.007	1175.391	1161.767	-255.261	1164.170	1158.813	-217.694	1192.180	1076.608	-221.787	1309.630	544.823	-75.473	1233.844	522.988	-340.220	1221.294	582.635	-91.873	1167.361	593.050	-352.338	1233.560	500.004	-111.274	1144.470	508.783	-351.604	1259.732	174.629	-59.799	929.211	238.037	-419.046	1252.406	139.900	-134.901	900.441	210.703	-344.693	1371.233	40.345	-162.342	905.303	42.816	-320.786
	91	1.05833	1157.362	747.063	-217.567	1149.997	742.987	-152.035	1131.970	741.593	-281.090	1226.711	407.656	-173.217	1085.087	421.719	-305.126	1271.223	66.804	-174.503	866.055	138.835	-305.628	1211.447	810.229	-227.139	1225.442	811.311	-126.954	1197.453	809.146	-327.325	1061.288	852.720	-171.674	1051.225	850.776	-225.451	1234.558	406.014	-118.804	1072.222	427.560	-357.763	1210.432	410.065	-217.257	1091.247	390.571	-260.827	1271.537	66.704	-137.005	856.700	146.141	-340.673	1272.700	67.406	-199.669	870.684	137.377	-276.240	1077.700	1217.199	-209.110	1187.984	1159.081	-178.342	1180.184	1162.663	-253.493	1169.304	1159.657	-215.845	1197.439	1077.511	-220.261	1313.259	544.475	-74.513	1243.644	525.124	-339.461	1224.448	582.669	-90.347	1176.266	594.050	-351.660	1236.956	500.373	-110.088	1154.790	509.332	-351.897	1260.766	174.359	-59.334	937.200	240.377	-418.593	1253.066	139.837	-134.472	909.517	213.135	-343.712	1371.381	40.197	-162.404	908.109	43.696	-320.089
	92	1.06667	1161.927	746.994	-215.815	1155.179	743.602	-150.503	1137.277	742.168	-279.575	1228.804	407.839	-172.047	1096.394	421.235	-305.617	1271.417	66.745	-174.308	874.091	142.315	-304.458	1216.646	810.880	-225.561	1230.542	811.993	-125.372	1202.750	809.766	-325.749	1066.365	853.310	-170.385	1056.358	851.249	-224.145	1236.840	406.112	-117.665	1083.675	427.129	-358.284	1213.489	410.719	-216.248	1102.446	389.455	-262.432	1271.789	66.543	-136.810	864.567	149.761	-339.427	1272.808	67.463	-199.490	879.074	140.258	-275.214	1083.094	1217.785	-207.493	1193.300	1159.735	-176.800	1184.035	1163.156	-251.892	1173.888	1160.272	-213.983	1201.705	1078.036	-218.736	1316.911	544.174	-73.568	1253.486	527.296	-338.757	1228.082	582.932	-88.909	1184.939	594.887	-351.073	1240.432	500.725	-108.904	1164.855	509.919	-352.097	1261.738	174.054	-58.820	945.534	242.586	-418.017	1253.766	139.709	-134.125	918.911	215.404	-342.668	1371.547	40.029	-162.350	911.432	45.011	-319.419
